HIERARCHY
ROOT Hips
{
	OFFSET 52.065498 -7.981635 93.967598
	CHANNELS 6 Xposition Yposition Zposition Xrotation Yrotation Zrotation
	JOINT spine
	{
		OFFSET 0.000000 -0.429886 7.475601
		CHANNELS 3 Xrotation Yrotation Zrotation
		JOINT spine1
		{
			OFFSET 0.000000 -0.000002 9.923012
			CHANNELS 3 Xrotation Yrotation Zrotation
			JOINT spine2
			{
				OFFSET 0.000000 -0.000002 9.508041
				CHANNELS 3 Xrotation Yrotation Zrotation
				JOINT Neck
				{
					OFFSET 0.000000 -1.163844 24.411102
					CHANNELS 3 Xrotation Yrotation Zrotation
					JOINT Head
					{
						OFFSET 0.000000 -0.000001 7.375229
						CHANNELS 3 Xrotation Yrotation Zrotation
						End Site
						{
							OFFSET 0.000000 5.887407 17.852203
						}
					}
				}
				JOINT RightShoulder
				{
					OFFSET -4.003559 0.557467 10.267899
					CHANNELS 3 Xrotation Yrotation Zrotation
					JOINT RightArm
					{
						OFFSET 0.000000 -0.000002 13.467300
						CHANNELS 3 Xrotation Yrotation Zrotation
						JOINT RightArmRoll
						{
							OFFSET 0.000000 -0.000001 6.798584
							CHANNELS 3 Xrotation Yrotation Zrotation
							JOINT RightForeArm
							{
								OFFSET 0.000000 -0.000003 19.801804
								CHANNELS 3 Xrotation Yrotation Zrotation
								JOINT RightForeArmRoll
								{
									OFFSET 0.000000 -0.000001 7.629044
									CHANNELS 3 Xrotation Yrotation Zrotation
									JOINT RightHand
									{
										OFFSET 0.000000 -0.000002 15.309799
										CHANNELS 3 Xrotation Yrotation Zrotation
										End Site
										{
											OFFSET 0.000000 0.000000 0.100006
										}
									}
								}
							}
						}
					}
				}
				JOINT LeftShoulder
				{
					OFFSET 4.003559 0.557467 10.267899
					CHANNELS 3 Xrotation Yrotation Zrotation
					JOINT LeftArm
					{
						OFFSET 0.000000 -0.000002 13.467300
						CHANNELS 3 Xrotation Yrotation Zrotation
						JOINT LeftArmRoll
						{
							OFFSET 0.000000 -0.000001 6.798569
							CHANNELS 3 Xrotation Yrotation Zrotation
							JOINT LeftForeArm
							{
								OFFSET 0.000000 -0.000003 19.801804
								CHANNELS 3 Xrotation Yrotation Zrotation
								JOINT LeftForeArmRoll
								{
									OFFSET 0.000000 -0.000001 7.629044
									CHANNELS 3 Xrotation Yrotation Zrotation
									JOINT LeftHand
									{
										OFFSET 0.000000 -0.000002 15.309799
										CHANNELS 3 Xrotation Yrotation Zrotation
										End Site
										{
											OFFSET 0.000000 0.000000 0.100006
										}
									}
								}
							}
						}
					}
				}
			}
		}
	}
	JOINT RightUpLeg
	{
		OFFSET -6.626091 1.019270 -1.215050
		CHANNELS 3 Xrotation Yrotation Zrotation
		JOINT RightUpLegRoll
		{
			OFFSET 0.000000 -0.000003 17.951698
			CHANNELS 3 Xrotation Yrotation Zrotation
			JOINT RightLeg
			{
				OFFSET 0.000000 0.000004 -22.230400
				CHANNELS 3 Xrotation Yrotation Zrotation
				JOINT RightLegRoll
				{
					OFFSET 0.000000 -0.000004 22.303200
					CHANNELS 3 Xrotation Yrotation Zrotation
					JOINT RightFoot
					{
						OFFSET 0.000000 -0.000003 18.563606
						CHANNELS 3 Xrotation Yrotation Zrotation
						JOINT RightToeBase
						{
							OFFSET 0.000000 -0.000002 15.518295
							CHANNELS 3 Xrotation Yrotation Zrotation
							End Site
							{
								OFFSET 0.006577 0.866261 7.515396
							}
						}
					}
				}
			}
		}
	}
	JOINT LeftUpLeg
	{
		OFFSET 6.626091 1.019270 -1.215050
		CHANNELS 3 Xrotation Yrotation Zrotation
		JOINT LeftUpLegRoll
		{
			OFFSET 0.000000 -0.000003 17.951797
			CHANNELS 3 Xrotation Yrotation Zrotation
			JOINT LeftLeg
			{
				OFFSET 0.000000 -0.000003 22.230301
				CHANNELS 3 Xrotation Yrotation Zrotation
				JOINT LeftLegRoll
				{
					OFFSET 0.000000 -0.000004 22.509293
					CHANNELS 3 Xrotation Yrotation Zrotation
					JOINT LeftFoot
					{
						OFFSET 0.000000 -0.000003 18.357498
						CHANNELS 3 Xrotation Yrotation Zrotation
						JOINT LeftToeBase
						{
							OFFSET 0.000000 -0.000003 15.518295
							CHANNELS 3 Xrotation Yrotation Zrotation
							End Site
							{
								OFFSET -0.029476 0.866262 7.515396
							}
						}
					}
				}
			}
		}
	}
}
MOTION
Frames: 7
Frame Time: 0.041667
54.437004 -8.123102 93.789589 -2.928731 0.900755 2.632221 -1.196493 -0.269079 0.022019 1.609953 -0.544376 0.055937 3.255077 -0.543871 0.062357 0.861566 11.778805 -2.411957 7.729634 -12.061084 -2.182134 -4.606930 -66.388421 -6.123758 9.499533 -108.256060 35.731752 -0.000003 0.000021 0.000001 5.289914 -3.633372 -1.194757 -0.000002 -0.000007 -3.007460 -5.000220 -7.999619 0.000065 -4.279130 78.803471 6.814530 -62.938814 96.422948 35.143618 0.000002 -0.000007 0.000004 7.109719 1.048796 0.840557 -0.000009 0.000012 3.000981 -5.000156 7.999999 -0.000031 -0.906320 179.848033 -1.295725 -179.999991 0.000005 -1.090995 170.363728 -1.381247 -0.598515 -0.000006 0.000002 0.156033 69.871271 6.862268 2.132760 25.456967 -7.355613 -0.000001 0.704712 178.028157 0.843637 -0.000005 -0.000004 -0.963834 -4.667286 4.964047 0.314094 -0.000000 -0.000004 -0.052722 68.856496 -6.814650 -2.342899 25.456965 7.355615 -0.000001 
54.436001 -8.115904 93.766190 -2.920156 0.907653 2.618138 -1.200872 -0.269071 0.019518 1.601193 -0.544760 0.050652 3.246307 -0.544314 0.057127 0.978491 11.751134 -2.424448 7.673015 -12.051938 -2.185448 -4.590834 -66.412142 -6.107693 9.191250 -108.166195 35.614567 -0.000004 0.000021 0.000002 5.206348 -3.501879 -1.208767 -0.000002 -0.000008 -3.007461 -5.000219 -7.999620 0.000065 -4.284332 78.812515 6.820760 -64.669761 96.425284 36.814699 0.000002 -0.000007 0.000002 7.097084 1.016671 0.841616 -0.000008 0.000010 3.000979 -5.000155 7.999999 -0.000032 -0.918345 179.843020 -1.297084 -179.999991 0.000005 -1.090994 170.374165 -1.388185 -0.598435 -0.000007 0.000002 0.155937 69.867241 6.862242 2.133401 25.456969 -7.355613 -0.000000 0.690755 178.023157 0.845398 -0.000005 -0.000004 -0.963834 -4.667589 4.958613 0.313869 -0.000000 -0.000004 -0.052722 68.856394 -6.814644 -2.342805 25.456962 7.355615 -0.000000 
54.429703 -8.098907 93.771599 -2.911781 0.914412 2.604349 -1.205276 -0.269055 0.016990 1.592372 -0.545170 0.045306 3.237486 -0.544784 0.051854 1.097765 11.724106 -2.437081 7.614552 -12.042926 -2.189029 -4.572533 -66.436437 -6.089187 8.889110 -108.078243 35.506182 -0.000003 0.000020 -0.000000 5.123527 -3.368578 -1.222536 -0.000002 -0.000007 -3.007458 -5.000220 -7.999620 0.000064 -4.285663 78.824939 6.823147 -66.384958 96.430503 38.470159 0.000001 -0.000007 0.000003 7.087294 0.984942 0.842590 -0.000008 0.000011 3.000982 -5.000156 8.000000 -0.000033 -0.929946 179.838034 -1.298131 -179.999991 0.000005 -1.090994 170.384820 -1.395138 -0.598337 -0.000007 0.000002 0.155871 69.863130 6.862280 2.134065 25.456971 -7.355613 -0.000001 0.677141 178.018144 0.847285 -0.000005 -0.000004 -0.963834 -4.667820 4.953150 0.313629 -0.000000 -0.000005 -0.052722 68.856284 -6.814674 -2.342618 25.456960 7.355615 -0.000000 
54.426899 -8.090964 93.788689 -2.903543 0.921074 2.590775 -1.209702 -0.269037 0.014443 1.583512 -0.545601 0.039916 3.228636 -0.545274 0.046552 1.218663 11.697526 -2.449763 7.554790 -12.034132 -2.192789 -4.552663 -66.461272 -6.068960 8.590220 -107.993043 35.402721 -0.000003 0.000021 -0.000000 5.041219 -3.234009 -1.236031 -0.000002 -0.000008 -3.007461 -5.000219 -7.999619 0.000064 -4.284228 78.839590 6.822792 -68.086823 96.439327 40.112318 0.000002 -0.000006 0.000005 7.079486 0.953492 0.843492 -0.000008 0.000011 3.000983 -5.000155 8.000001 -0.000033 -0.941238 179.834031 -1.298973 -179.999991 0.000005 -1.090995 170.395584 -1.402079 -0.598244 -0.000006 0.000002 0.155826 69.859086 6.862252 2.134808 25.456965 -7.355613 -0.000000 0.663774 178.013130 0.849263 -0.000005 -0.000005 -0.963834 -4.667992 4.947677 0.313376 -0.000000 -0.000005 -0.052721 68.856291 -6.814673 -2.342417 25.456967 7.355616 -0.000001 
54.415199 -8.075527 93.782593 -2.895399 0.927678 2.577317 -1.214134 -0.269015 0.011886 1.574642 -0.546040 0.034500 3.219757 -0.545774 0.041234 1.340501 11.671293 -2.462445 7.494302 -12.025345 -2.196654 -4.531892 -66.486332 -6.047736 8.293047 -107.908478 35.301918 -0.000003 0.000021 0.000002 4.959240 -3.098689 -1.249188 -0.000002 -0.000007 -3.007459 -5.000221 -7.999621 0.000063 -4.281261 78.855675 6.820910 -69.778927 96.452510 41.744965 0.000002 -0.000006 0.000006 7.072823 0.922200 0.844362 -0.000008 0.000011 3.000978 -5.000154 7.999999 -0.000033 -0.952366 179.829018 -1.299668 -179.999991 0.000005 -1.090995 170.406403 -1.409020 -0.598147 -0.000006 0.000002 0.155793 69.855070 6.862259 2.135457 25.456969 -7.355614 -0.000000 0.650539 178.008131 0.851293 -0.000005 -0.000004 -0.963834 -4.668125 4.942193 0.313117 -0.000000 -0.000004 -0.052722 68.856291 -6.814674 -2.342319 25.456960 7.355614 -0.000001 
54.410599 -8.065784 93.791489 -2.887289 0.934264 2.563898 -1.218561 -0.268992 0.009326 1.565751 -0.546480 0.029078 3.210876 -0.546276 0.035912 1.462541 11.645106 -2.475053 7.433618 -12.016544 -2.200545 -4.510846 -66.511487 -6.026216 7.995420 -107.823449 35.200879 -0.000003 0.000021 -0.000001 4.877378 -2.963171 -1.261970 -0.000002 -0.000008 -3.007461 -5.000220 -7.999620 0.000065 -4.277888 78.872060 6.818627 -71.462015 96.470876 43.368669 0.000002 -0.000005 0.000005 7.066449 0.890949 0.845217 -0.000008 0.000011 3.000980 -5.000157 8.000000 -0.000033 -0.963444 179.825029 -1.300347 -179.999991 0.000005 -1.090994 170.417263 -1.415975 -0.598049 -0.000006 0.000002 0.155763 69.851040 6.862262 2.136110 25.456969 -7.355613 -0.000000 0.637344 178.004128 0.853348 -0.000005 -0.000004 -0.963834 -4.668256 4.936711 0.312857 -0.000001 -0.000004 -0.052722 68.856291 -6.814673 -2.342117 25.456962 7.355617 -0.000001 
54.405003 -8.042594 93.786194 -2.879110 0.940875 2.550407 -1.222994 -0.268970 0.006771 1.556881 -0.546913 0.023668 3.202005 -0.546770 0.030597 1.584097 11.618779 -2.487503 7.373306 -12.007720 -2.204351 -4.490199 -66.536438 -6.005128 7.694690 -107.737840 35.096056 -0.000003 0.000021 0.000002 4.795424 -2.827972 -1.274353 -0.000002 -0.000007 -3.007458 -5.000221 -7.999620 0.000063 -4.275269 78.887736 6.817090 -73.136928 96.495267 44.984442 0.000002 -0.000006 0.000004 7.059500 0.859617 0.846072 -0.000009 0.000011 3.000980 -5.000156 8.000000 -0.000032 -0.974615 179.820016 -1.301078 -179.999991 0.000005 -1.090995 170.428096 -1.422917 -0.598944 -0.000006 0.000002 0.155727 69.847010 6.862233 2.136853 25.456971 -7.355613 -0.000000 0.624075 177.999128 0.855370 -0.000005 -0.000004 -0.963834 -4.668398 4.931228 0.312599 -0.000000 -0.000004 -0.052722 68.856284 -6.814674 -2.342018 25.456964 7.355615 -0.000001 
